<svg width="52" height="52" viewBox="0 0 52 52" fill="none" xmlns="http://www.w3.org/2000/svg">
<path d="M20.6667 14.3333V30.3333C20.6667 31.0406 20.9476 31.7188 21.4477 32.2189C21.9478 32.719 22.6261 33 23.3334 33H34C34.7073 33 35.3855 32.719 35.8856 32.2189C36.3857 31.7188 36.6667 31.0406 36.6667 30.3333V18.656C36.6666 18.3007 36.5956 17.9491 36.4578 17.6216C36.3199 17.2942 36.1181 16.9976 35.864 16.7493L31.444 12.4267C30.9458 11.9395 30.2768 11.6667 29.58 11.6667H23.3334C22.6261 11.6667 21.9478 11.9476 21.4477 12.4477C20.9476 12.9478 20.6667 13.6261 20.6667 14.3333V14.3333Z" stroke="white" stroke-width="2" stroke-linecap="round" stroke-linejoin="round"/>
<path d="M31.3333 33V35.6666C31.3333 36.3739 31.0524 37.0522 30.5523 37.5523C30.0522 38.0524 29.3739 38.3333 28.6667 38.3333H18C17.2928 38.3333 16.6145 38.0524 16.1144 37.5523C15.6143 37.0522 15.3333 36.3739 15.3333 35.6666V21C15.3333 20.2927 15.6143 19.6145 16.1144 19.1144C16.6145 18.6143 17.2928 18.3333 18 18.3333H20.6667" stroke="white" stroke-width="2" stroke-linecap="round" stroke-linejoin="round"/>
<circle cx="26" cy="26" r="25" stroke="white" stroke-width="2"/>
</svg>
