<svg width="48" height="48" viewBox="0 0 48 48" fill="none" xmlns="http://www.w3.org/2000/svg">
<path fill-rule="evenodd" clip-rule="evenodd" d="M24 3.09C11.89 3.09 2.086 12.844 2.086 24.856C2.086 33.676 7.372 41.266 14.98 44.68C15.776 45.038 16.554 44.896 17.162 44.44C17.4982 44.1782 17.7693 43.842 17.9539 43.4579C18.1385 43.0738 18.2316 42.6521 18.226 42.226V41.086L15.512 40.718C15.4919 40.7153 15.4719 40.712 15.452 40.708C13.956 40.416 12.946 39.89 12.206 39.132C11.584 38.494 11.204 37.73 10.882 37.082L10.77 36.856C10.4724 36.2352 10.1474 35.628 9.796 35.036C9.526 34.608 9.316 34.388 9.108 34.25C8.58 33.9 8.072 33.306 8.072 32.564C8.0702 32.3504 8.11592 32.1391 8.20586 31.9454C8.29579 31.7517 8.42769 31.5804 8.592 31.444C8.90211 31.1985 9.2886 31.0696 9.684 31.08C10.128 31.08 10.546 31.216 10.894 31.372C11.25 31.532 11.604 31.744 11.934 31.964C12.738 32.5 13.53 33.134 14.2 33.916C14.898 34.728 15.392 35.244 16.136 35.35C16.748 35.438 17.372 35.44 17.858 35.418C17.9255 35.0332 18.0369 34.6574 18.19 34.298C17.5964 34.1595 17.0109 33.9886 16.436 33.786C15.128 33.322 13.67 32.6 12.69 31.506C11.614 30.302 10.948 29.228 10.576 27.972C10.214 26.748 10.154 25.422 10.154 23.79C10.154 21.29 11.236 19.184 12.048 18.066C11.736 17.0872 11.5118 16.0826 11.378 15.064C11.2894 14.4217 11.2901 13.7702 11.38 13.128C11.48 12.542 11.73 11.822 12.388 11.388C13.022 10.966 13.766 10.984 14.346 11.092C14.948 11.206 15.574 11.456 16.15 11.742C17.088 12.206 18.02 12.826 18.718 13.352C19.922 12.998 22.052 12.542 23.978 12.5H24.022C25.95 12.542 27.984 12.998 29.158 13.35C29.858 12.826 30.788 12.204 31.724 11.742C32.3 11.456 32.924 11.206 33.528 11.092C34.108 10.984 34.852 10.966 35.488 11.386C36.144 11.822 36.396 12.542 36.494 13.128C36.596 13.738 36.572 14.42 36.494 15.064C36.3608 16.0825 36.1372 17.0871 35.826 18.066C36.638 19.186 37.72 21.292 37.72 23.79C37.72 25.422 37.66 26.748 37.3 27.97C36.926 29.23 36.26 30.302 35.184 31.506C34.204 32.6 32.746 33.322 31.438 33.786C30.7437 34.03 30.0342 34.2285 29.314 34.38C29.56 35.124 29.648 35.726 29.648 36.072V42.252C29.648 43.192 30.086 43.994 30.708 44.462C31.312 44.92 32.088 45.062 32.884 44.714C40.564 41.33 45.912 33.72 45.912 24.854C45.912 12.844 36.112 3.09 24 3.09ZM18.952 37.42C18.432 37.494 18.95 37.42 18.95 37.42H18.944L18.928 37.424L18.87 37.432C18.5729 37.4669 18.2748 37.4916 17.976 37.506C17.412 37.532 16.638 37.534 15.844 37.42C14.262 37.196 13.3 36.076 12.678 35.348L12.618 35.28C12.4146 35.0441 12.1962 34.8216 11.964 34.614C12.17 34.994 12.384 35.418 12.614 35.874L12.634 35.914L12.736 36.122C13.086 36.818 13.316 37.282 13.698 37.67C14.07 38.05 14.65 38.418 15.822 38.65L19.41 39.136C19.6606 39.1699 19.8904 39.2936 20.0566 39.4842C20.2229 39.6747 20.3143 39.9191 20.314 40.172V42.226C20.314 43.826 19.564 45.252 18.414 46.116C17.8102 46.5773 17.092 46.8651 16.3367 46.9483C15.5814 47.0315 14.8177 46.9069 14.128 46.588C5.804 42.854 0 34.54 0 24.856C0 11.672 10.754 1 24 1C37.246 1 48 11.672 48 24.856C48 34.59 42.122 42.926 33.726 46.628C33.0357 46.9408 32.2734 47.0601 31.5206 46.9731C30.7677 46.8861 30.0527 46.5961 29.452 46.134C28.858 45.6767 28.3781 45.0881 28.0499 44.4142C27.7216 43.7403 27.5539 42.9996 27.56 42.25V36.07C27.56 35.93 27.462 35.122 26.916 34.036C26.8406 33.8854 26.8027 33.7189 26.8053 33.5505C26.808 33.3821 26.8511 33.2169 26.9312 33.0687C27.0113 32.9206 27.1258 32.7939 27.2652 32.6994C27.4046 32.605 27.5647 32.5455 27.732 32.526C28.418 32.45 29.574 32.228 30.74 31.814C31.928 31.394 32.994 30.818 33.628 30.11C34.57 29.058 35.04 28.25 35.298 27.376C35.566 26.47 35.634 25.416 35.634 23.79C35.634 21.508 34.434 19.59 33.882 18.972C33.7567 18.8323 33.6713 18.6615 33.6347 18.4775C33.5981 18.2935 33.6117 18.103 33.674 17.926C33.954 17.138 34.294 15.912 34.424 14.818C34.488 14.268 34.492 13.808 34.436 13.476C34.4235 13.3546 34.3867 13.237 34.328 13.13C34.1903 13.1062 34.0491 13.1123 33.914 13.148C33.574 13.212 33.14 13.372 32.648 13.616C31.668 14.1 30.648 14.816 30.016 15.328C29.8766 15.4411 29.7104 15.5162 29.5334 15.5459C29.3564 15.5757 29.1747 15.5592 29.006 15.498C27.3867 14.9683 25.7023 14.6634 24 14.592C21.986 14.64 19.662 15.212 18.868 15.498C18.6993 15.5592 18.5176 15.5757 18.3406 15.5459C18.1636 15.5162 17.9974 15.4411 17.858 15.328C17.0407 14.67 16.1588 14.0964 15.226 13.616C14.8254 13.4056 14.3992 13.2483 13.958 13.148C13.8235 13.1126 13.683 13.1065 13.546 13.13C13.4872 13.2369 13.4505 13.3546 13.438 13.476C13.382 13.808 13.386 14.268 13.45 14.818C13.58 15.912 13.922 17.138 14.2 17.926C14.326 18.286 14.248 18.686 13.992 18.972C13.44 19.59 12.24 21.508 12.24 23.79C12.24 25.414 12.308 26.47 12.576 27.376C12.836 28.25 13.304 29.056 14.244 30.11C14.88 30.818 15.944 31.394 17.134 31.814C18.1075 32.1585 19.1154 32.3972 20.14 32.526C20.3508 32.5486 20.5497 32.6349 20.7103 32.7733C20.8709 32.9118 20.9855 33.0959 21.0389 33.301C21.0923 33.5062 21.082 33.7228 21.0093 33.922C20.9366 34.1211 20.805 34.2935 20.632 34.416C20.302 34.652 20.084 35.076 19.962 35.566C19.899 35.8183 19.8615 36.0762 19.85 36.336V36.374C19.8525 36.6276 19.7629 36.8735 19.5977 37.0659C19.4325 37.2583 19.203 37.3841 18.952 37.42V37.42Z" fill="white"/>
</svg>
