<svg width="149" height="118" viewBox="0 0 149 118" fill="none" xmlns="http://www.w3.org/2000/svg">
<path d="M88.7877 118V78.1624C88.7877 61.3533 90.6587 46.7294 94.4007 34.2906C98.1427 21.8519 103.926 10.4217 111.75 0H149C140.495 10.7578 133.862 21.8518 129.099 33.2821C124.337 44.3761 121.955 54.7977 121.955 64.547H148.49V118H88.7877ZM0 118V78.1624C0 61.6895 1.70091 47.2336 5.10274 34.7949C8.84475 22.0199 14.6279 10.4217 22.4521 0H60.2123C51.7078 10.7578 45.0742 21.8518 40.3116 33.2821C35.5491 44.3761 33.1678 54.7977 33.1678 64.547H59.7021V118H0Z" fill="white" fill-opacity="0.35"/>
</svg>
